<svg width="300" height="80" viewBox="0 0 443 80" fill="none" xmlns="http://www.w3.org/2000/svg">
<rect width="84.7158" height="80" rx="8" fill="white"/>
<path fill-rule="evenodd" clip-rule="evenodd" d="M41.7684 60C53.4651 60 62.9474 51.0456 62.9474 40C62.9474 28.9543 53.4651 20 41.7684 20C30.0716 20 20.5895 28.9543 20.5895 40C20.5895 51.0456 30.0716 60 41.7684 60ZM44.9453 40C44.9453 38.3432 43.5229 37 41.7684 37C40.014 37 38.5916 38.3432 38.5916 40C38.5916 41.6568 40.014 43 41.7684 43C43.5229 43 44.9453 41.6568 44.9453 40ZM41.7684 27C43.5229 27 44.9453 28.3431 44.9453 30C44.9453 31.6569 43.5229 33 41.7684 33C40.014 33 38.5916 31.6569 38.5916 30C38.5916 28.3431 40.014 27 41.7684 27ZM36.4737 35C36.4737 33.3431 35.0514 32 33.2968 32C31.5423 32 30.12 33.3431 30.12 35C30.12 36.6568 31.5423 38 33.2968 38C35.0514 38 36.4737 36.6568 36.4737 35Z" fill="#0D9488"/>
<path d="M109.761 38.272L86.0165 35.752H110.153C109.966 36.4987 109.835 37.3387 109.761 38.272ZM111.665 30.376L110.825 32.84L87.5845 30.376H111.665ZM109.761 41.128C109.835 42.136 109.985 42.976 110.209 43.648L86.5205 41.128H109.761ZM117.601 49.024L87.9765 46.504H112.113C113.345 47.6987 115.174 48.5387 117.601 49.024ZM115.865 25C115.006 25.56 114.185 26.3253 113.401 27.296L91.7845 25H115.865ZM87.0245 51.88H107.969L107.129 54.344L87.0245 51.88ZM86.0725 57.312H106.177L105.337 59.776L86.0725 57.312ZM110.377 50.144C113.513 51.0027 116.369 51.432 118.945 51.432C121.558 51.432 123.686 51.32 125.329 51.096L125.777 48.296L121.129 47.848C117.582 47.512 115.062 46.7093 113.569 45.44C112.113 44.1707 111.385 42.3787 111.385 40.064C111.385 39.056 111.497 37.936 111.721 36.704C112.579 31.9253 114.147 28.64 116.425 26.848C118.702 25.056 122.193 24.16 126.897 24.16C131.638 24.16 135.819 24.6267 139.441 25.56L136.529 34.52C133.281 33.96 130.667 33.68 128.689 33.68C126.747 33.68 125.067 33.7733 123.649 33.96L123.201 36.704L126.952 37.096C130.761 37.5067 133.467 38.4213 135.073 39.84C136.678 41.2213 137.481 43.088 137.481 45.44C137.481 47.8293 136.977 50.2933 135.969 52.832C135.409 54.1387 134.811 55.24 134.177 56.136C133.579 56.9947 132.795 57.7413 131.825 58.376C130.891 58.9733 130.033 59.44 129.249 59.776C128.465 60.0747 127.457 60.2987 126.225 60.448C124.507 60.7093 122.379 60.84 119.841 60.84C115.211 60.84 111.011 60.3547 107.241 59.384L110.377 50.144ZM167.488 53.056H162.056L160.824 60H151.416L156.568 30.376H170.792C176.206 30.376 178.912 32.9333 178.912 38.048C178.912 40.3627 178.576 42.4907 177.904 44.432C177.232 46.3733 176.504 47.904 175.72 49.024C174.936 50.144 173.816 51.096 172.36 51.88C170.942 52.664 169.318 53.056 167.488 53.056ZM168.72 40.064C168.72 40.0267 168.739 39.9147 168.776 39.728C168.776 38.944 167.974 38.552 166.368 38.552H164.576L163.4 45.496H165.136C165.995 45.496 166.667 45.4027 167.152 45.216C167.638 44.992 167.936 44.544 168.048 43.872L168.72 40.064ZM149.568 59.832L125.824 57.312H150.016L149.568 59.832ZM151.472 49.024L127.728 46.504H151.92L151.472 49.024ZM152.424 43.648L128.68 41.128H152.872L152.424 43.648ZM153.376 38.272L129.632 35.752H153.824L153.376 38.272ZM154.328 32.896L130.584 30.376H154.72L154.328 32.896ZM150.52 54.4L126.776 51.88H150.968L150.52 54.4ZM208.554 60H190.354L195.506 30.376H205.362L201.61 51.768H210.01L208.554 60ZM188.506 59.832L164.762 57.312H188.954L188.506 59.832ZM190.41 49.024L166.666 46.504H190.858L190.41 49.024ZM191.362 43.648L167.618 41.128H191.81L191.362 43.648ZM192.314 38.272L168.57 35.752H192.762L192.314 38.272ZM193.266 32.896L169.522 30.376H193.658L193.266 32.896ZM189.458 54.4L165.714 51.88H189.906L189.458 54.4ZM222.127 60L227.279 30.376H237.135L231.927 60H222.127ZM220.279 59.832L196.535 57.312H220.727L220.279 59.832ZM222.183 49.024L198.439 46.504H222.631L222.183 49.024ZM223.135 43.648L199.391 41.128H223.583L223.135 43.648ZM224.087 38.272L200.343 35.752H224.535L224.087 38.272ZM225.039 32.896L201.295 30.376H225.431L225.039 32.896ZM221.231 54.4L197.487 51.88H221.679L221.231 54.4ZM273.214 38.776H267.166L263.47 60H253.614L257.31 38.776H251.094L252.606 30.376H274.726L273.214 38.776ZM251.934 59.832L228.19 57.312H252.382L251.934 59.832ZM253.838 49.024L230.094 46.504H254.286L253.838 49.024ZM254.79 43.648L231.046 41.128H255.238L254.79 43.648ZM249.414 38.272L225.67 35.752H249.862L249.414 38.272ZM250.366 32.896L226.622 30.376H250.758L250.366 32.896ZM252.886 54.4L229.142 51.88H253.334L252.886 54.4ZM282.624 59.832L258.992 57.312H283.184L282.624 59.832ZM283.856 54.4L260.28 51.88H284.472L283.856 54.4ZM285.144 49.024L261.568 46.504H285.704L285.144 49.024ZM286.376 43.648L262.856 41.128H286.992L286.376 43.648ZM287.664 38.272L264.144 35.752H288.224L287.664 38.272ZM288.896 32.896L265.432 30.376H289.512L288.896 32.896ZM290.184 27.52L266.72 25H290.744L290.184 27.52ZM295.392 60H284.304L292.48 25H306.368L307.376 42.808H307.768L315.048 25H328.936L324.792 60H313.648L316 43.032H315.608L308.608 60H300.488L299.312 43.032H299.032L295.392 60ZM359.761 60L359.537 55.464H352.481L350.745 60H341.057L353.489 30.376H367.377L369.561 60H359.761ZM359.537 47.456V38.944H358.753L355.449 47.456H359.537ZM339.265 59.776L316.305 57.312H340.329L339.265 59.776ZM341.561 54.344L318.601 51.88H342.625L341.561 54.344ZM343.857 48.968L320.897 46.504H344.865L343.857 48.968ZM346.097 43.592L323.193 41.128H347.161L346.097 43.592ZM348.393 38.216L325.489 35.752H349.401L348.393 38.216ZM350.633 32.784L327.785 30.376H351.641L350.633 32.784ZM406.159 38.776H400.111L396.415 60H386.559L390.255 38.776H384.039L385.551 30.376H407.671L406.159 38.776ZM384.879 59.832L361.135 57.312H385.327L384.879 59.832ZM386.783 49.024L363.039 46.504H387.231L386.783 49.024ZM387.735 43.648L363.991 41.128H388.183L387.735 43.648ZM382.359 38.272L358.615 35.752H382.807L382.359 38.272ZM383.311 32.896L359.567 30.376H383.703L383.311 32.896ZM385.831 54.4L362.087 51.88H386.279L385.831 54.4ZM437.242 47.96H428.898L428.226 51.768H438.586L437.13 60H417.362L422.514 30.376H442.226L439.594 38.776H430.466L429.794 42.584H438.194L437.242 47.96ZM415.514 59.832L391.769 57.312H415.962L415.514 59.832ZM417.418 49.024L393.673 46.504H417.866L417.418 49.024ZM418.37 43.648L394.625 41.128H418.818L418.37 43.648ZM419.322 38.272L395.577 35.752H419.77L419.322 38.272ZM420.274 32.896L396.529 30.376H420.666L420.274 32.896ZM416.466 54.4L392.721 51.88H416.914L416.466 54.4Z" fill="#253237"/>
</svg>
