<svg width="300" height="80" viewBox="0 0 442 80" fill="none" xmlns="http://www.w3.org/2000/svg">
<rect width="84.7158" height="80" rx="8" fill="#0D9488"/>
<path fill-rule="evenodd" clip-rule="evenodd" d="M41.7684 60C53.4651 60 62.9474 51.0456 62.9474 40C62.9474 28.9543 53.4651 20 41.7684 20C30.0716 20 20.5895 28.9543 20.5895 40C20.5895 51.0456 30.0716 60 41.7684 60ZM44.9453 40C44.9453 38.3432 43.5229 37 41.7684 37C40.014 37 38.5916 38.3432 38.5916 40C38.5916 41.6568 40.014 43 41.7684 43C43.5229 43 44.9453 41.6568 44.9453 40ZM41.7684 27C43.5229 27 44.9453 28.3431 44.9453 30C44.9453 31.6569 43.5229 33 41.7684 33C40.014 33 38.5916 31.6569 38.5916 30C38.5916 28.3431 40.014 27 41.7684 27ZM36.4737 35C36.4737 33.3431 35.0514 32 33.2968 32C31.5423 32 30.12 33.3431 30.12 35C30.12 36.6568 31.5423 38 33.2968 38C35.0514 38 36.4737 36.6568 36.4737 35Z" fill="white"/>
<path d="M108.761 38.272L85.0165 35.752H109.153C108.966 36.4987 108.835 37.3387 108.761 38.272ZM110.665 30.376L109.825 32.84L86.5845 30.376H110.665ZM108.761 41.128C108.835 42.136 108.985 42.976 109.209 43.648L85.5205 41.128H108.761ZM116.601 49.024L86.9765 46.504H111.113C112.345 47.6987 114.174 48.5387 116.601 49.024ZM114.865 25C114.006 25.56 113.185 26.3253 112.401 27.296L90.7845 25H114.865ZM86.0245 51.88H106.969L106.129 54.344L86.0245 51.88ZM85.0725 57.312H105.177L104.337 59.776L85.0725 57.312ZM109.377 50.144C112.513 51.0027 115.369 51.432 117.945 51.432C120.558 51.432 122.686 51.32 124.329 51.096L124.777 48.296L120.129 47.848C116.582 47.512 114.062 46.7093 112.569 45.44C111.113 44.1707 110.385 42.3787 110.385 40.064C110.385 39.056 110.497 37.936 110.721 36.704C111.579 31.9253 113.147 28.64 115.425 26.848C117.702 25.056 121.193 24.16 125.897 24.16C130.638 24.16 134.819 24.6267 138.441 25.56L135.529 34.52C132.281 33.96 129.667 33.68 127.689 33.68C125.747 33.68 124.067 33.7733 122.649 33.96L122.201 36.704L125.952 37.096C129.761 37.5067 132.467 38.4213 134.073 39.84C135.678 41.2213 136.481 43.088 136.481 45.44C136.481 47.8293 135.977 50.2933 134.969 52.832C134.409 54.1387 133.811 55.24 133.177 56.136C132.579 56.9947 131.795 57.7413 130.825 58.376C129.891 58.9733 129.033 59.44 128.249 59.776C127.465 60.0747 126.457 60.2987 125.225 60.448C123.507 60.7093 121.379 60.84 118.841 60.84C114.211 60.84 110.011 60.3547 106.241 59.384L109.377 50.144ZM166.488 53.056H161.056L159.824 60H150.416L155.568 30.376H169.792C175.206 30.376 177.912 32.9333 177.912 38.048C177.912 40.3627 177.576 42.4907 176.904 44.432C176.232 46.3733 175.504 47.904 174.72 49.024C173.936 50.144 172.816 51.096 171.36 51.88C169.942 52.664 168.318 53.056 166.488 53.056ZM167.72 40.064C167.72 40.0267 167.739 39.9147 167.776 39.728C167.776 38.944 166.974 38.552 165.368 38.552H163.576L162.4 45.496H164.136C164.995 45.496 165.667 45.4027 166.152 45.216C166.638 44.992 166.936 44.544 167.048 43.872L167.72 40.064ZM148.568 59.832L124.824 57.312H149.016L148.568 59.832ZM150.472 49.024L126.728 46.504H150.92L150.472 49.024ZM151.424 43.648L127.68 41.128H151.872L151.424 43.648ZM152.376 38.272L128.632 35.752H152.824L152.376 38.272ZM153.328 32.896L129.584 30.376H153.72L153.328 32.896ZM149.52 54.4L125.776 51.88H149.968L149.52 54.4ZM207.554 60H189.354L194.506 30.376H204.362L200.61 51.768H209.01L207.554 60ZM187.506 59.832L163.762 57.312H187.954L187.506 59.832ZM189.41 49.024L165.666 46.504H189.858L189.41 49.024ZM190.362 43.648L166.618 41.128H190.81L190.362 43.648ZM191.314 38.272L167.57 35.752H191.762L191.314 38.272ZM192.266 32.896L168.522 30.376H192.658L192.266 32.896ZM188.458 54.4L164.714 51.88H188.906L188.458 54.4ZM221.127 60L226.279 30.376H236.135L230.927 60H221.127ZM219.279 59.832L195.535 57.312H219.727L219.279 59.832ZM221.183 49.024L197.439 46.504H221.631L221.183 49.024ZM222.135 43.648L198.391 41.128H222.583L222.135 43.648ZM223.087 38.272L199.343 35.752H223.535L223.087 38.272ZM224.039 32.896L200.295 30.376H224.431L224.039 32.896ZM220.231 54.4L196.487 51.88H220.679L220.231 54.4ZM272.214 38.776H266.166L262.47 60H252.614L256.31 38.776H250.094L251.606 30.376H273.726L272.214 38.776ZM250.934 59.832L227.19 57.312H251.382L250.934 59.832ZM252.838 49.024L229.094 46.504H253.286L252.838 49.024ZM253.79 43.648L230.046 41.128H254.238L253.79 43.648ZM248.414 38.272L224.67 35.752H248.862L248.414 38.272ZM249.366 32.896L225.622 30.376H249.758L249.366 32.896ZM251.886 54.4L228.142 51.88H252.334L251.886 54.4ZM281.624 59.832L257.992 57.312H282.184L281.624 59.832ZM282.856 54.4L259.28 51.88H283.472L282.856 54.4ZM284.144 49.024L260.568 46.504H284.704L284.144 49.024ZM285.376 43.648L261.856 41.128H285.992L285.376 43.648ZM286.664 38.272L263.144 35.752H287.224L286.664 38.272ZM287.896 32.896L264.432 30.376H288.512L287.896 32.896ZM289.184 27.52L265.72 25H289.744L289.184 27.52ZM294.392 60H283.304L291.48 25H305.368L306.376 42.808H306.768L314.048 25H327.936L323.792 60H312.648L315 43.032H314.608L307.608 60H299.488L298.312 43.032H298.032L294.392 60ZM358.761 60L358.537 55.464H351.481L349.745 60H340.057L352.489 30.376H366.377L368.561 60H358.761ZM358.537 47.456V38.944H357.753L354.449 47.456H358.537ZM338.265 59.776L315.305 57.312H339.329L338.265 59.776ZM340.561 54.344L317.601 51.88H341.625L340.561 54.344ZM342.857 48.968L319.897 46.504H343.865L342.857 48.968ZM345.097 43.592L322.193 41.128H346.161L345.097 43.592ZM347.393 38.216L324.489 35.752H348.401L347.393 38.216ZM349.633 32.784L326.785 30.376H350.641L349.633 32.784ZM405.159 38.776H399.111L395.415 60H385.559L389.255 38.776H383.039L384.551 30.376H406.671L405.159 38.776ZM383.879 59.832L360.135 57.312H384.327L383.879 59.832ZM385.783 49.024L362.039 46.504H386.231L385.783 49.024ZM386.735 43.648L362.991 41.128H387.183L386.735 43.648ZM381.359 38.272L357.615 35.752H381.807L381.359 38.272ZM382.311 32.896L358.567 30.376H382.703L382.311 32.896ZM384.831 54.4L361.087 51.88H385.279L384.831 54.4ZM436.242 47.96H427.898L427.226 51.768H437.586L436.13 60H416.362L421.514 30.376H441.226L438.594 38.776H429.466L428.794 42.584H437.194L436.242 47.96ZM414.514 59.832L390.769 57.312H414.962L414.514 59.832ZM416.418 49.024L392.673 46.504H416.866L416.418 49.024ZM417.37 43.648L393.625 41.128H417.818L417.37 43.648ZM418.322 38.272L394.577 35.752H418.77L418.322 38.272ZM419.274 32.896L395.529 30.376H419.666L419.274 32.896ZM415.466 54.4L391.721 51.88H415.914L415.466 54.4Z" fill="#253237"/>
</svg>
