<svg width="300" height="80" viewBox="0 0 479 80" fill="none" xmlns="http://www.w3.org/2000/svg">
<rect width="84.7158" height="80" rx="8" fill="white"/>
<path fill-rule="evenodd" clip-rule="evenodd" d="M41.7684 60C53.4651 60 62.9474 51.0456 62.9474 40C62.9474 28.9543 53.4651 20 41.7684 20C30.0716 20 20.5895 28.9543 20.5895 40C20.5895 51.0456 30.0716 60 41.7684 60ZM44.9453 40C44.9453 38.3432 43.5229 37 41.7684 37C40.014 37 38.5916 38.3432 38.5916 40C38.5916 41.6568 40.014 43 41.7684 43C43.5229 43 44.9453 41.6568 44.9453 40ZM41.7684 27C43.5229 27 44.9453 28.3431 44.9453 30C44.9453 31.6569 43.5229 33 41.7684 33C40.014 33 38.5916 31.6569 38.5916 30C38.5916 28.3431 40.014 27 41.7684 27ZM36.4737 35C36.4737 33.3431 35.0514 32 33.2968 32C31.5423 32 30.12 33.3431 30.12 35C30.12 36.6568 31.5423 38 33.2968 38C35.0514 38 36.4737 36.6568 36.4737 35Z" fill="#0D9488"/>
<path d="M114.82 59.832L91.1875 57.312H115.38L114.82 59.832ZM116.052 54.4L92.4755 51.88H116.668L116.052 54.4ZM117.34 49.024L93.7635 46.504H117.9L117.34 49.024ZM118.572 43.648L95.0515 41.128H119.188L118.572 43.648ZM119.86 38.272L96.3395 35.752H120.42L119.86 38.272ZM121.092 32.896L97.6275 30.376H121.708L121.092 32.896ZM122.38 27.52L98.9155 25H122.94L122.38 27.52ZM127.588 60H116.5L124.676 25H138.564L139.572 42.808H139.964L147.244 25H161.132L156.988 60H145.844L148.196 43.032H147.804L140.804 60H132.684L131.508 43.032H131.228L127.588 60ZM175.604 59.832L151.86 57.312H176.052L175.604 59.832ZM176.556 54.4L152.812 51.88H177.004L176.556 54.4ZM174.316 38.272L150.572 35.752H173.812L174.316 38.272ZM173.196 32.896L149.452 30.376H172.692L173.196 32.896ZM175.436 43.648L151.692 41.128H174.932L175.436 43.648ZM176.556 49.024L152.812 46.504H175.996L176.556 49.024ZM184.004 30.376L185.236 41.128H185.572L190.22 30.376H200.02L188.148 51.544L186.748 60H177.284L178.74 51.544L174.372 30.376H184.004ZM232.879 25C235.567 25 237.508 25.4667 238.703 26.4C239.935 27.3333 240.551 28.7707 240.551 30.712C240.551 33.5493 239.916 35.8827 238.647 37.712C237.415 39.5413 235.903 40.68 234.111 41.128L234.055 41.464C237.415 42.0987 239.095 44.32 239.095 48.128C239.095 51.488 238.18 54.3067 236.351 56.584C234.522 58.8613 231.946 60 228.623 60H209.471L215.631 25H232.879ZM226.719 46.056H222.519L221.511 51.768H225.655C226.588 51.768 227.298 51.3947 227.783 50.648C228.268 49.9013 228.511 48.9493 228.511 47.792C228.511 46.6347 227.914 46.056 226.719 46.056ZM228.287 32.672H224.927L223.975 37.88H227.279C228.996 37.88 229.855 36.6667 229.855 34.24C229.855 33.1947 229.332 32.672 228.287 32.672ZM207.791 59.832L184.047 57.312H208.239L207.791 59.832ZM209.695 49.024L185.951 46.504H210.143L209.695 49.024ZM210.647 43.648L186.903 41.128H211.095L210.647 43.648ZM211.599 38.272L187.855 35.752H212.047L211.599 38.272ZM212.551 32.896L188.807 30.376H212.943L212.551 32.896ZM208.743 54.4L184.999 51.88H209.191L208.743 54.4ZM213.447 27.52L189.759 25H213.895L213.447 27.52ZM269.918 29.816C273.95 29.816 276.825 30.6 278.542 32.168C280.259 33.6987 281.118 36.1067 281.118 39.392C281.118 40.9973 280.913 42.9387 280.502 45.216C279.569 50.592 277.926 54.512 275.574 56.976C273.222 59.44 269.526 60.672 264.486 60.672C260.529 60.672 257.71 59.9067 256.03 58.376C254.35 56.808 253.51 54.4 253.51 51.152C253.51 49.472 253.715 47.4933 254.126 45.216C255.059 39.84 256.683 35.9387 258.998 33.512C261.313 31.048 264.953 29.816 269.918 29.816ZM266.11 52.16C267.193 52.16 267.995 52.0293 268.518 51.768C269.078 51.5067 269.451 50.928 269.638 50.032L271.766 38.328H268.35C267.305 38.328 266.483 38.4587 265.886 38.72C265.326 38.9813 264.99 39.5413 264.878 40.4L262.806 52.16H266.11ZM252.166 46.504C252.017 47.6613 251.923 48.4453 251.886 48.856L229.822 46.504H252.166ZM253.23 41.128L252.726 43.48L230.83 41.128H253.23ZM251.83 51.88C251.83 52.4773 251.905 53.2613 252.054 54.232L230.046 51.88H251.83ZM255.19 35.752C254.742 36.7227 254.425 37.4693 254.238 37.992L233.07 35.752H255.19ZM253.006 57.312C253.454 58.208 253.939 58.8987 254.462 59.384L234.918 57.312H253.006ZM260.062 30.376C259.166 30.8987 258.401 31.5147 257.766 32.224L240.574 30.376H260.062ZM298.074 60V30.376H308.266V46.392H308.546L314.818 30.376H323.33V46.392H323.554L328.706 30.376H339.402L328.482 60H316.33L315.49 49.528H315.098L310.786 60H298.074ZM296.226 30.376V32.896L274.218 30.376H296.226ZM296.226 35.752V38.272L274.218 35.752H296.226ZM296.226 41.128V43.648L274.218 41.128H296.226ZM296.226 46.504V49.024L274.218 46.504H296.226ZM296.226 51.88V54.4L274.218 51.88H296.226ZM296.226 57.312V59.832L274.218 57.312H296.226ZM367.233 60H349.033L354.185 30.376H364.041L360.289 51.768H368.689L367.233 60ZM347.185 59.832L323.441 57.312H347.633L347.185 59.832ZM349.089 49.024L325.345 46.504H349.537L349.089 49.024ZM350.041 43.648L326.297 41.128H350.489L350.041 43.648ZM350.993 38.272L327.249 35.752H351.441L350.993 38.272ZM351.945 32.896L328.201 30.376H352.337L351.945 32.896ZM348.137 54.4L324.393 51.88H348.585L348.137 54.4ZM380.807 60L385.959 30.376H395.815L390.607 60H380.807ZM378.959 59.832L355.215 57.312H379.407L378.959 59.832ZM380.863 49.024L357.119 46.504H381.311L380.863 49.024ZM381.815 43.648L358.071 41.128H382.263L381.815 43.648ZM382.767 38.272L359.023 35.752H383.215L382.767 38.272ZM383.719 32.896L359.975 30.376H384.111L383.719 32.896ZM379.911 54.4L356.167 51.88H380.359L379.911 54.4ZM425.565 60L419.797 48.912H419.573L417.613 60H408.205L413.357 30.376H420.973L426.797 41.408H427.133L429.037 30.376H438.389L433.181 60H425.565ZM406.357 59.832L382.613 57.312H406.805L406.357 59.832ZM408.261 49.024L384.517 46.504H408.709L408.261 49.024ZM409.213 43.648L385.469 41.128H409.661L409.213 43.648ZM410.165 38.272L386.421 35.752H410.613L410.165 38.272ZM411.117 32.896L387.373 30.376H411.509L411.117 32.896ZM407.309 54.4L383.565 51.88H407.757L407.309 54.4ZM473.7 58.432C469.892 59.9253 466.01 60.672 462.052 60.672C458.095 60.672 455.276 59.9067 453.596 58.376C451.916 56.808 451.076 54.4 451.076 51.152C451.076 49.5467 451.338 47.2507 451.86 44.264C452.383 41.2773 453.186 38.72 454.268 36.592C456.62 32.0747 461.38 29.816 468.548 29.816C472.73 29.816 475.642 30.2267 477.284 31.048L474.428 38.832C472.076 38.3093 469.948 38.048 468.044 38.048C466.178 38.048 464.852 38.1787 464.068 38.44C463.284 38.7013 462.818 39.2053 462.668 39.952L460.316 52.832H462.892C463.826 52.832 464.535 52.7387 465.02 52.552C465.543 52.328 465.86 51.8613 465.972 51.152L466.364 48.968H464.068L465.188 42.584H476.5L473.7 58.432ZM449.732 46.504C449.583 47.6613 449.49 48.4453 449.452 48.856L427.388 46.504H449.732ZM450.796 41.128L450.292 43.48L428.396 41.128H450.796ZM449.396 51.88C449.396 52.4773 449.471 53.2613 449.62 54.232L427.612 51.88H449.396ZM452.756 35.752C452.308 36.7227 451.991 37.4693 451.804 37.992L430.636 35.752H452.756ZM450.572 57.312C451.02 58.208 451.506 58.8987 452.028 59.384L432.484 57.312H450.572ZM457.628 30.376C456.732 30.8987 455.967 31.5147 455.332 32.224L438.14 30.376H457.628Z" fill="#253237"/>
</svg>
